<svg id="Layer_1" data-name="Layer 1" xmlns="http://www.w3.org/2000/svg" viewBox="0 0 653.7308 525.2896"><defs><style>.cls-1{fill:#fcc600;}.cls-2{fill:#fafafa;}</style></defs><path class="cls-1" d="M891.8159,603.0932c-.4323,1.2258.2626,2.1456.8092,3.13q19.4424,35.0252,38.8523,70.0682c2.8927,5.2336,6.9153,8.8392,13.0341,9.4771,2.3473.2447,2.8657,1.22,2.5229,3.4291-.9956,6.4156-3.8268,9.1245-10.318,9.5483-6.8329.4461-8.6678,2.142-9.6686,8.923q-.41,2.778-.8472,5.552c-1.7912,11.4436-5.8211,15.7618-17.288,16.3182-7.5159.3646-14.5553,1.4042-21.1174,5.1874a10.0467,10.0467,0,0,1-3.9672.9912c-3.5509.3463-5.3184-1.2387-5.696-4.806a23.6158,23.6158,0,0,1,2.3843-12.3689c3.0111-6.61,3.2954-12.6435-2.12-18.2959-2.543-2.6544-.9861-5.6769.2755-8.4,3.59-7.7469,3.6226-7.7879-4.8222-7.2588-3.77.2362-6.9323-.8118-9.3116-3.76-2.5994-3.2212-5.7829-3.5657-9.4224-2.2285a26.5026,26.5026,0,0,0-13.6214,11.2c-5.469,8.8491-12.0574,16.8046-18.6779,24.7664-7.2645,8.7363-11.8934,18.4962-12.9749,30.0861-1.3312,14.2659-8.7808,22.0491-22.123,24.55-9.3855,1.7592-14.2169-3.5021-11.7419-12.7512,1.2651-4.7279,4.0643-8.5319,7.2752-12.0545a52.5043,52.5043,0,0,1,6.65-6.56c7.7158-5.8906,9.5975-13.3908,7.3563-22.58-1.944-7.9705-.5461-11.6037,6.6828-15.5079,8.1269-4.3892,14.417-10.4469,19.84-17.7789,4.8915-6.6137,10.8552-12.3884,15.47-19.2513a40.8809,40.8809,0,0,0,5.6369-12.9763c1.0951-4.3582-.5214-8.1589-3.6595-11.2175-2.8652-2.7926-6.17-1.9176-9.4742-.7978-10.2352,3.4687-11.6818,2.4251-11.9818-8.3933a19.3328,19.3328,0,0,0-.5786-4.4294c-1.7723-6.6227-4.2919-8.2469-10.9-6.6065a100.3918,100.3918,0,0,1-13.6221,2.3374c-2.8136.3-5.7561.3359-8.0525-1.0327-9.5222-5.6747-19.134-4.5449-28.7576-.7749-8.4726,3.3191-17.3744,4.57-26.2535,5.7832-18.4231,2.5169-35.0374,9.5945-50.6365,19.356-4.9411,3.0921-9.9179,5.7672-15.9834,5.5969-8.24-.2315-12.6261-6.8574-9.62-14.5071,3.7946-9.6575,12.0795-13.0657,21.1716-15.3459,7.06-1.77,14.2956-2.2763,21.5257-2.7258,11.67-.7257,22.88-3.6892,34.0733-6.7915a67.086,67.086,0,0,1,8.76-1.9657c8.6128-1.1785,16.3236-4.2262,22.9009-10.0506,4.3733-3.8728,10.1675-3.3789,15.3356-3.9692,10.4478-1.1931,15.6567-8.5166,20.7269-16.1133,1.9584-2.9343.6049-6.9957-2.3528-9.7481-2.3321-2.17-5.2364-3.3489-8.064-4.6544-5.4881-2.5337-7.7946-5.7438-7.137-11.7572.4786-4.3763-1.6546-6.0432-5.125-7.3295-5.8286-2.1605-11.8759-3.88-16.6994-8.1489-3.3422-2.9581-4.8344-6.3141-3.9055-10.9412.7861-3.9153,1.669-7.5243,4.3614-10.7016,5.2351-6.178,4.7665-13.0251,1.6984-20.0309a33.0814,33.0814,0,0,1-1.8383-5.2869c-2.0212-8.1672,2.17-14.7892,10.5251-16.28,9.0161-1.609,17.9162-.4231,26.7376,1.6878,2.3006.55,4.6441.9534,6.9877,1.2829a16.8542,16.8542,0,0,0,6.3243-.3534c7.9789-1.9183,9.7265-7.038,4.5012-13.3788-1.5071-1.8287-3.21-3.4971-4.7008-5.3377-3.6052-4.45-1.8482-9.5549,3.7425-10.7389,2.924-.6193,5.9011-1.0339,8.8739-1.3639,3.1255-.347,4.8672-2.0842,4.9516-5.0814.2846-10.1085,6.14-15.8808,14.8193-19.5886a10.7885,10.7885,0,0,0,6.9358-9.8269c.3355-4.7,1.3523-9.1115,4.9028-12.5889,1.3606-1.3326,1.3715-3.0127.9921-4.8763-.9441-4.6361-3.3729-8.5555-5.62-12.5868a39.9116,39.9116,0,0,1-3.152-6.345c-1.4756-4.3184,1.6909-7.842,6.1718-7.1535,3.4809.5347,5.9009,2.7263,7.8493,5.3525,3.3135,4.4661,7.388,7.2208,13.1179,7.5077,3.1277.1565,5.9125,1.89,8.8876,2.7884,3.3389,1.0084,4.5625-.0406,3.9282-3.4762-.9943-5.3852-3.808-10.0088-6.8971-14.3781-3.7624-5.3216-7.1676-10.7653-9.3557-16.9562-1.6953-4.7964-5.5379-7.8981-9.3915-10.9208-1.7639-1.3837-3.62-2.6727-5.2484-4.2019-3.2818-3.081-3.4638-5.3632.04-8.0213,2.936-2.2271,3.242-4.75,2.587-7.8606-1.1914-5.6589-2.878-11.1108-6.65-15.6755-1.113-1.3468-2.1618-2.7562-3.3652-4.0174-9.12-9.5572-5.484-17.3948,3.78-23.3677a9.8054,9.8054,0,0,1,10.378-.34c5.5972,3.0613,9.4581,7.3808,10.3635,14.1523,1.5543,11.6266,3.0684,23.2783,6.0292,34.6665.3763,1.4472.9059,2.8538,1.3279,4.29.84,2.8589,2.0059,4.1264,5.3514,2.5273,4.4662-2.1348,7.7629.4689,7.2192,5.4046a46.2923,46.2923,0,0,1-1.63,7.2994,13.3619,13.3619,0,0,0,3.7066,14.0736c1.6051,1.5723,3.2033,3.1656,4.9329,4.5939A20.3528,20.3528,0,0,1,908.14,372.22c1.3623,6.5645,4.7972,10.39,12.0928,10.9876,8.193.6707,11.4732-1.6929,11.3113-10.2368-.0993-5.2389-.7564-10.4649-.9633-15.7046-.2664-6.7464,3.8283-11.6754,10.4971-12.9218.6137-.1147,1.2374-.1754,1.853-.2811,14.5545-2.4986,20.5337,6.6966,20.4929,20.44-.0092,3.0988-.8026,6.1872-1.0426,9.2952-.3925,5.0839.9232,6.7158,5.97,7.7118,2.0805.4106,4.2085.6209,6.2544,1.1544a18.0126,18.0126,0,0,1,4.8582,1.8869c5.0164,3.0758,4.9805,5.4188-.0628,8.214Q908.86,431.8622,838.3,470.9221c-10.1564,5.6221-12.7964,14.0529-7.2091,24.22q19.2889,35.1008,38.7751,70.093c.42.7578.73,1.6193,1.716,1.8537.0587.7391.1677,1.4782.1685,2.2173.01,9.5923.1163,19.1866-.056,28.7759-.0644,3.5863.8058,5.0108,4.8137,4.967C881.5913,602.7436,886.7115,603.05,891.8159,603.0932Zm-89.077-87.0467c-8.48,0-16.961.0929-25.4382-.0524-2.8214-.0484-3.76,1.0121-3.6756,3.7052.1284,4.1112.0927,8.23.0145,12.344-.0422,2.2206.923,3.2109,3.1024,3.21q25.8132-.015,51.6263.0071c2.3757.0035,3.3433-1.0539,3.2848-3.4137-.0988-3.9849-.2276-7.9838-.0018-11.9573.1707-3.0043-.93-3.9324-3.8483-3.884C819.45,516.1434,811.0939,516.0537,802.7389,516.0465Z" transform="translate(-654.4189 -272.0789)"/><path class="cls-1" d="M871.5465,550.3156c-6.7322-11.9386-13.4927-23.8613-20.1866-35.8213q-6.5759-11.749-12.9917-23.5875c-3.0856-5.6733-1.9342-9.3263,3.9348-12.5894q26.8049-14.9027,53.6345-29.7607,63.4886-35.1817,126.9813-70.3559c5.8861-3.2625,9.6661-2.2184,12.9579,3.7343q26.63,48.1571,53.2507,96.32a21.943,21.943,0,0,0,1.5044,2.11c-3.3539.05-6.7091.1834-10.0609.1242-2.5295-.0447-3.5969.9844-3.5424,3.5461.1058,4.9705.2162,9.9523-.0076,14.9144-.1409,3.1242,1.1739,3.7379,3.9582,3.7,7.4517-.1022,14.907.0566,22.3608.1117a18.354,18.354,0,0,0,.9988,2.7486q6.9566,12.6288,13.9862,25.2175c-12.4615.0789-24.9232.227-37.3843.1835-2.7959-.01-3.982.6015-3.9618,3.715.1355,20.8215.0907,41.6443.1037,62.4666.0036,5.74.0025,5.74,5.6314,5.9815q-58.1981,32.2861-116.3958,64.5728c-4.6862,2.6-9.3566,5.2286-14.0559,7.8045-6.8321,3.7449-10.2553,2.7624-13.9882-3.9947q-12.1037-21.9092-24.1923-43.8266c-5.6065-10.1378-11.26-20.25-16.8472-30.398-.5676-1.0308-1.0831-1.96-2.3414-2.1739a5.82,5.82,0,0,0,.2084-1.088q.0577-33.0993.1181-66.1985c.0073-2.3541-1.0752-2.927-3.2238-2.885-5.4835.1072-10.9768.1923-16.4536-.0277-2.958-.1189-3.8885.8563-3.8456,3.7828C871.8023,535.8636,871.6156,543.09,871.5465,550.3156Zm46.4731,20.342c.6974,15.88,5.0944,30.2319,16.4764,41.6007,14.5015,14.4846,32.7213,19.9623,52.623,19.0417,18.3317-.8481,31.64-10.3135,39.3846-27.1718,3.3537-7.3,4.812-15.2083,7.2526-22.8018,1.38-4.2928,1.2707-4.2583,5.047-1.5179,4.8561,3.5241,9.8293,6.88,15.6727,8.6058a7.1823,7.1823,0,0,0,7.62-1.7448c1.9065-1.9374,1.6058-4.0625.7978-6.5642-7.9334-24.5616-15.7256-49.1689-23.5518-73.7651-1.2886-4.05-1.2709-4.05-4.6744-1.2753q-29.0037,23.6451-58.0253,47.2685a12.4975,12.4975,0,0,0-4.0808,6.0891c-1.7854,5.4878-.546,7.374,5.2263,7.7182q10.2816.6132,20.5624,1.24c1.22.0748,2.9833-.0384,2.4115,1.8526-1.8675,6.176-2.383,12.8807-6.1757,18.3329-5.836,8.39-14.0433,9.7854-23.5463,7.7711-14.2392-3.0183-22.3861-15.5306-18.4767-29.4731,5.8248-20.7738,11.9279-41.4695,17.8994-62.2022,5.4211-18.8217,10.8-37.6556,16.2639-56.4648.7394-2.5454.2779-3.858-2.5033-4.588-8.32-2.1837-16.6282-4.4475-24.8274-7.0395-3.0152-.9532-3.7957-.1135-4.5785,2.6376-10.6168,37.3116-21.4066,74.574-31.9956,111.8933C920.8925,556.9007,917.9515,563.5127,918.02,570.6576Zm-34.755-69.1307c10.9842,0,21.9689-.0588,32.9522.0383,3.02.0267,4.3047-.9865,4.1332-4.1474-.216-3.9821-.0543-7.9846-.0546-11.9782,0-4.91-.0807-5.0344-4.9973-5.0415q-23.0294-.0332-46.0588-.0085c-6.241,0-12.4823.04-18.7229-.009-2.7537-.0215-4.0452.9252-3.8667,3.9643a106.9773,106.9773,0,0,1,0,12.7238c-.2071,3.4155.92,4.5981,4.4126,4.5374C861.7934,501.4194,872.53,501.5381,883.2646,501.5269Z" transform="translate(-654.4189 -272.0789)"/><path class="cls-2" d="M1189.18,522.7839c-1.1231,2.0817-.5584,3.85-.5625,5.5614-.0333,13.8648-.108,27.7305.0344,41.5938.0305,2.9818-.8466,3.9206-3.8152,3.7977-5.3617-.2221-10.7428-.1921-16.1081-.0238-2.5282.08-3.56-.5483-3.5532-3.2833q.1016-43.2765-.0152-86.5533c-.0063-2.6726,1.0763-3.4684,3.5919-3.4105,5.3683.1237,10.7442.1489,16.111.0005a5.5989,5.5989,0,0,1,5.2326,2.8038q26.1731,37.6061,52.4658,75.1287c.4693.671.7791,1.5633,1.7346,1.7628,1.1152-.7824.6592-1.851.66-2.7742q.0348-35.7863.0361-71.5726c.0019-5.2824.003-5.2887,5.4561-5.2988,4.8715-.009,9.7444.0687,14.6137-.0322,2.4421-.0506,3.2434.9406,3.24,3.3419q-.0732,57.8943-.0041,115.7887c.0025,2.3756-.8385,3.4073-3.2674,3.3744q-8.617-.1162-17.2365.0129a4.74,4.74,0,0,1-4.2646-2.4619c-14.2146-20.4437-28.3129-40.9714-42.8064-61.2159C1196.9021,533.9867,1193.7429,528.1721,1189.18,522.7839Z" transform="translate(-654.4189 -272.0789)"/><path class="cls-2" d="M1082.7139,603.0733c-5.6289-.2412-5.6278-.2412-5.6314-5.9815-.013-20.8223.0318-41.6451-.1037-62.4666-.02-3.1135,1.1659-3.7248,3.9618-3.715,12.4611.0435,24.9228-.1046,37.3825-.1842a17.7329,17.7329,0,0,0,8.1546-.6193c9.7785-2.587,13.6068-15.6273,6.4579-22.3627a19.04,19.04,0,0,0-12.75-5.0288c-5.6106-.1512-11.23.0162-16.8453.0454-7.4538-.0551-14.9091-.2139-22.3608-.1117-2.7843.0383-4.0991-.5754-3.9582-3.7.2238-4.9621.1134-9.9439.0076-14.9144-.0545-2.5617,1.0129-3.5908,3.5424-3.5461,3.3518.0592,6.707-.0739,10.0609-.1242q16.3378.0721,32.6753.1439a63.8223,63.8223,0,0,1,19.2887,4.8954c16.0325,11.6475,21.2822,28.0486,14.5581,45.7067a29.5625,29.5625,0,0,1-16.3885,17.0388c-3.03,1.3263-3.353,2.6323-1.9432,5.5967,7.1654,15.0675,14.0934,30.2481,21.0716,45.4043,1.5166,3.2941,1.1636,3.7549-2.58,3.8288-1.995.0394-3.99.0706-5.9855.1055-3.9609-.0377-7.9248-.1858-11.8811-.0716-2.3546.068-3.6073-.9348-4.5213-3.0007-1.9421-4.39-4.0587-8.7021-6.1041-13.0453a21.3514,21.3514,0,0,0-3.4761-7.2915c-2.0464-6.025-5.7832-11.3931-7.5508-17.4253-2.1931-7.4845-6.5106-10.1955-13.8937-8.7663a2.9251,2.9251,0,0,1-.7478-.0087c-2.0829-.149-2.8723.8174-2.854,2.8923.1095,12.36.145,24.72.2053,37.08q-.0778,4.3329-.1558,8.6659l-1.4849.9111Z" transform="translate(-654.4189 -272.0789)"/><path class="cls-2" d="M752.3375,525.1218c0,11.24-.3607,22.4938.0717,33.7172,1.05,27.25-17.4571,42.2071-40.956,43.9-16.1909,1.1667-30.7619-2.6565-41.9222-15.3407a33.7158,33.7158,0,0,1-8.6963-22.53c-.1444-19.7266-.073-39.4547-.1979-59.1814-.016-2.521.86-3.2062,3.2584-3.1391,5.366.15,10.7488.2487,16.1053-.02,3.157-.1584,3.7131,1.09,3.694,3.8851-.1156,16.859.0853,33.7213-.1544,50.5777-.1322,9.2926,2.5971,16.8646,11.4235,20.8684,9.5353,4.3253,19.0115,3.7086,27.6958-2.3887,4.8322-3.3928,6.6447-8.4517,6.6315-14.3271-.057-25.3484.055-50.6975-.1134-76.0449-.0245-3.6866,4.6326-4.65,4.6326-4.65s9.48-.0211,14.23-.0017c3.5973-.2037,4.4076,1.287,4.3717,4.5866-.1456,13.3615-.06,26.7255-.06,40.0886Z" transform="translate(-654.4189 -272.0789)"/><path class="cls-1" d="M1128.822,586.9662c2.0452,4.3441,4.1618,8.6566,6.1039,13.0462.914,2.0659,2.1667,3.0687,4.5213,3.0007,3.9563-.1142,7.92.0339,11.8811.0716,2.2783,3.4964,6.1622,4.3922,9.6864,5.5725,12.53,4.1964,25.0384,8.5321,37.7694,12.0355,11.0224,3.0332,21.177,7.6384,30.06,14.6321,13.4747,10.6089,29.2187,13.8764,45.6463,15.68,10.7051,1.1754,20.7523,4.2886,28.9371,11.8528,3.1943,2.9521,5.79,6.1924,4.2816,10.767-1.4766,4.4764-5.4128,6.1658-9.688,6.4779-15.3,1.1168-29.7693-1.4021-42.8275-10.0991-10.1946-6.79-19.0071-15.3068-28.8345-22.5765a121.2466,121.2466,0,0,0-39.1012-19.5948c-14.8119-4.2636-29.078-10.4156-43.6027-15.6864-8.06-2.9248-16.5847-3.4179-24.9795-4.55-5.5521-.7486-11.1636-1.1108-16.5319-2.9129-1.1857-.3981-2.4237-.6348-3.28-1.6585q.7434-.4554,1.4855-.91a6.8494,6.8494,0,0,0,2.15-.3863Q1115.6869,594.3946,1128.822,586.9662Z" transform="translate(-654.4189 -272.0789)"/><path class="cls-1" d="M1006.8566,666.0622c.7916,6.2489-1.2864,12.2856-6.1253,17.6728-2.6586,2.96-2.5921,6.6133-.7867,10.4261,3.0549,6.4512,7.1726,12.1637,11.26,17.9424a119.254,119.254,0,0,1,9.148,14.9833,18.8822,18.8822,0,0,1,1.78,11.6413c-.9271,6.1378-4.6384,9.1517-10.8409,8.9619-11.021-.3373-20.603-9.8348-18.8857-20.6089,1.4853-9.3189-1.9815-15.6966-8.0194-21.56-5.6989-5.5344-8.6762-12.3209-10.18-19.969a18.6613,18.6613,0,0,0-3.0978-7.941c-1.2635-1.6578-1.1194-2.6015.91-3.7144q25.8975-14.2005,51.6443-28.6742c2.2908-1.2883,2.8886-.7387,3.498,1.5334,1.8393,6.858.4436,8.9418-6.6668,8.9286a70.1324,70.1324,0,0,1-9.2932-.9136c-2.9242-.3994-4.228.9507-4.3281,3.6878C1006.7913,660.7,1006.8566,662.9475,1006.8566,666.0622Z" transform="translate(-654.4189 -272.0789)"/><path class="cls-2" d="M895.1015,593.9694q.0577-33.0993.1181-66.1985c.0073-2.3541-1.0752-2.927-3.2238-2.885-5.4835.1072-10.9768.1923-16.4536-.0277-2.958-.1189-3.8885.8563-3.8456,3.7828.1057,7.2226-.081,14.4494-.15,21.6746a111.2632,111.2632,0,0,1,.0352,16.7735c.0587.7391.1677,1.4782.1685,2.2173.01,9.5923.1163,19.1866-.056,28.7759-.0644,3.5863.6445,5.0108,4.8137,4.967,5.0405.0438,10.2036.001,15.3081.0438,2.7132-.0171,3.2855-1.4229,3.2855-3.9641Z" transform="translate(-654.4189 -272.0789)"/><path class="cls-1" d="M1081.55,432.7281a12.4537,12.4537,0,0,0,12.1567-4.4565c6.1689-8.0783,14.8387-11.8538,23.8675-15.2088,7.9064-2.9379,13.2618-8.1442,15.31-16.5071.53-2.1621,1.0457-4.7392,3.99-4.6055,3.0775.14,4.41,2.4267,5.0736,5.1876,2.2386,9.3057-3.8929,20.9882-13.8681,26.3048a25.1744,25.1744,0,0,1-4.7557,2.1531c-14.4576,4.1529-25.3242,14.1158-36.9085,22.8677-2.4635,1.8612-3.4316,1.4377-4.698-.9947-2.1842-4.1954-4.5967-8.2714-6.8508-12.4314-.3752-.6926-1.3394-1.4072-.6027-2.3271.6566-.82,1.6022-.3222,2.4495-.2473C1077.9563,432.5727,1079.2057,432.6051,1081.55,432.7281Z" transform="translate(-654.4189 -272.0789)"/><path class="cls-1" d="M1142.5958,485.4039a63.8223,63.8223,0,0,0-19.2887-4.8954c2.8115-2.25,5.7575-4.3533,8.4046-6.7823a38.8441,38.8441,0,0,1,15.6111-9.21,37.2821,37.2821,0,0,0,14.6556-8.6509,105.8293,105.8293,0,0,1,8.52-6.6791,16.589,16.589,0,0,1,14.2552-2.5321c5.9385,1.4406,7.5694,6.3912,3.6184,11.032-3.5061,4.1184-8.0018,7.1005-12.5809,9.8935a93.7584,93.7584,0,0,1-18.9728,8.745C1151.3515,478.1671,1146.22,480.63,1142.5958,485.4039Z" transform="translate(-654.4189 -272.0789)"/><path class="cls-1" d="M757.0123,688.3233c4.7077-.24,9.4367-1.0508,13.9474,1.284,4.4376,2.2969,6.69,6.751,5.8936,12.1863-.753,5.137-4.2161,9.1582-8.9366,9.71a25.3977,25.3977,0,0,0-12.371,4.6809c-4.84,3.4965-9.5017,1.2536-10.082-4.67-.3342-3.4107-2.0868-5.723-4.532-7.83-5.9048-5.0888-4.5948-11.2417,2.775-14.1935C748.0853,687.7375,752.5548,688.4058,757.0123,688.3233Z" transform="translate(-654.4189 -272.0789)"/><path class="cls-1" d="M838.6372,781.053c.0006,7.6289-5.4194,13.05-14.2239,13.9087a54.6474,54.6474,0,0,0-12.114,2.0609c-4.0736,1.3474-7.47-1.3947-7.0957-5.5591a50.4432,50.4432,0,0,1,1.7691-9.1318,9.1791,9.1791,0,0,1,6.05-6.1971c3.8321-1.3656,7.1816-3.22,9.7256-6.57,1.84-2.4227,4.4018-2.9085,7.3748-1.6553C835.9342,770.3591,838.6368,774.38,838.6372,781.053Z" transform="translate(-654.4189 -272.0789)"/><path class="cls-1" d="M785.7882,446.8612c.0666,7.2267-4.3634,10.993-11.3308,9.32a37.87,37.87,0,0,0-10.3247-1.1776c-3.1012.1133-5.62-.7576-6.5931-4.1829-.9678-3.4053.2838-5.81,3.0794-7.6376,2.81-1.8364,5.5522-3.792,8.4584-5.4617C777.055,433.1374,785.7059,437.9115,785.7882,446.8612Z" transform="translate(-654.4189 -272.0789)"/><path class="cls-1" d="M1047.2274,717.2377c-3.3375-.0389-5.5742-1.1075-7.1494-3.5008-1.545-2.3473-.7876-4.48.4322-6.6435.9746-1.7285,1.7787-3.5548,2.7833-5.2644,1.8659-3.1753,6.2032-4.6355,10.5621-3.7672,3.8789.7725,5.6015,3.32,6.1515,7.0023a6.41,6.41,0,0,1-.9415,4.66A18.113,18.113,0,0,1,1047.2274,717.2377Z" transform="translate(-654.4189 -272.0789)"/><path class="cls-1" d="M1127.3058,452.2286c.14,1.99-.96,3.3384-2.36,4.4618-3.98,3.1937-8.3168,5.9215-12.0832,9.4076a3.6112,3.6112,0,0,1-5.1084.2964,3.87,3.87,0,0,1-1.1463-5.0749c2.7719-4.7067,4.4794-10.0386,8.1464-14.2074,2.1865-2.4857,4.892-4.2321,8.2578-2.6784C1126.1871,445.8993,1126.9928,449.016,1127.3058,452.2286Z" transform="translate(-654.4189 -272.0789)"/><path class="cls-1" d="M953.6369,726.921c-3.77.0474-5.7916-1.5656-5.8759-4.6891a8.1466,8.1466,0,0,1,7.4243-7.9128c2.927-.1023,5.48,2.7655,5.5756,6.2639C960.8655,724.3985,958.0932,726.865,953.6369,726.921Z" transform="translate(-654.4189 -272.0789)"/><path class="cls-1" d="M1041.9008,640.4219c-1.708-.2326-4.7439.3171-5.3718-1.547-.5255-1.56,2.6415-1.9492,4.1237-2.8817,3.2648-2.054,6.72-3.8062,10.1078-5.6629.6046-.3313,1.15-1.1748,1.961-.5306.6852.5443.412,1.353.3381,2.0883C1052.5178,637.28,1048.4974,640.4577,1041.9008,640.4219Z" transform="translate(-654.4189 -272.0789)"/><path class="cls-1" d="M1145.5218,378.972c.0583,3.2145-3.0423,6.321-6.5029,6.409-2.5222.0641-4.43-.755-4.4574-3.7239-.0314-3.4447,3.5562-7.3943,6.6485-7.3459A4.4489,4.4489,0,0,1,1145.5218,378.972Z" transform="translate(-654.4189 -272.0789)"/><path class="cls-2" d="M802.7389,516.05c8.355.0036,16.7114.0933,25.0641-.0451,2.9178-.0484,4.019.88,3.8483,3.884-.2258,3.9735-.097,7.9724.0018,11.9573.0585,2.36-.9091,3.4172-3.2848,3.4137q-25.8131-.0376-51.6263-.0071c-2.1794.0013-3.1446-.989-3.1024-3.21.0782-4.1137.1139-8.2328-.0145-12.344-.0842-2.6931.8542-3.7536,3.6756-3.7052C785.7779,516.1394,794.2592,516.0465,802.7389,516.05Z" transform="translate(-654.4189 -272.0789)"/><path class="cls-2" d="M883.2646,501.5325c-10.7346.0056-21.4712-.1131-32.2025.0736-3.4922.0607-4.62-1.1219-4.4126-4.5374a106.9773,106.9773,0,0,0,0-12.7238c-.1785-3.0391,1.113-3.9858,3.8667-3.9643,6.2406.0488,12.4819.0093,18.7229.009q23.03-.0012,46.0588.0085c4.9166.0071,4.9968.1318,4.9973,5.0415,0,3.9936-.1614,7.9961.0546,11.9782.1715,3.1609-1.1128,4.1741-4.1332,4.1474C905.2335,501.4681,894.2488,501.5269,883.2646,501.5325Z" transform="translate(-654.4189 -272.0789)"/><path class="cls-1" d="M1100.5047,593.4479c-.06-12.36-.0958-24.7206-.2053-37.08-.0183-2.0749.7711-3.0413,2.854-2.8923a2.9251,2.9251,0,0,0,.7478.0087c7.3831-1.4292,11.7006,1.2818,13.8937,8.7663,1.7676,6.0322,5.5044,11.4,7.55,17.425Q1112.9236,586.5612,1100.5047,593.4479Z" transform="translate(-654.4189 -272.0789)"/></svg>